PathFileType	3	(X/Y/Z)	D:\Vicon Setup\UG\Test1\New Session\NewSession14.trc
DataRate	CameraRate	NumFrames	NumMarkers	Units	OrigDataRate	OrigDataStartFrame	OrigNumFrames
100.0	100.0	7	27	mm	100.0	312	173	
Frame#	Time	Sternum			LShoulder			RShoulder			LASIS			RASIS			RPSIS			LPSIS			RKneeLateral			RKneeMedial			RFibulaHead			RMidShank			RAnkleLateral			RAnkleMedial			RHeel			RMT5			RMT2			RToe			LKneeLateral			LKneeMedial			LFibulaHead			LMidShank			LAnkleLateral			LAnkleMedial			LHeel			LMT5			LMT2			LToe			
		X1	Y1	Z1	X2	Y2	Z2	X3	Y3	Z3	X4	Y4	Z4	X5	Y5	Z5	X6	Y6	Z6	X7	Y7	Z7	X8	Y8	Z8	X9	Y9	Z9	X10	Y10	Z10	X11	Y11	Z11	X12	Y12	Z12	X13	Y13	Z13	X14	Y14	Z14	X15	Y15	Z15	X16	Y16	Z16	X17	Y17	Z17	X18	Y18	Z18	X19	Y19	Z19	X20	Y20	Z20	X21	Y21	Z21	X22	Y22	Z22	X23	Y23	Z23	X24	Y24	Z24	X25	Y25	Z25	X26	Y26	Z26	X27	Y27	Z27	
312	3.11	-173.12434	1301.8027	1521.2798	-348.23886	1412.4136	1606.9427	22.828705	1352.8071	1572.3657	-291.48898	947.33276	1647.5001	-31.409908	959.64331	1649.7401	-110.86181	1004.968	1813.7784	-241.23355	994.75238	1817.1089	-10.247422	497.93985	1772.4939	-141.45688	473.78729	1748.7555	-10.578383	420.35718	1799.0088	-109.09123	273.77829	1856.8011	-66.96801	120.66899	1998.725	-146.27373	135.50549	1946.6895	-129.72185	116.37136	2072.9004	-24.906195	18.511482	1883.6959	-90.825722	47.499001	1867.856	-92.258842	32.303791	1830.8915	-324.12054	554.01233	1479.675	-196.18251	542.42731	1468.5302	-328.31473	511.57349	1506.0449	-243.90276	377.12769	1572.0308	-288.69904	255.79024	1752.3853	-207.85754	245.66333	1707.1788	-218.98505	281.91779	1816.6713	-255.38391	88.210258	1649.7161	-264.16687	122.66994	1671.8466	-325.40631	109.87132	1712.1649
313	3.12	-176.1535	1310.2395	1493.6184	-349.6698	1419.8048	1581.7815	20.217295	1361.6694	1541.517	-291.55527	955.08069	1618.3876	-29.268415	964.59961	1616.2863	-109.71244	1011.8898	1783.295	-240.24603	1001.5117	1787.7285	-9.9431114	506.60519	1757.0981	-142.02078	482.85114	1735.968	-9.630455	430.94998	1787.4535	-106.39866	282.69757	1844.8024	-64.323982	130.14787	1989.005	-143.47856	142.81604	1936.0348	-127.26693	131.5403	2062.0742	-24.653877	18.00552	1882.8766	-90.435272	46.324783	1865.728	-92.366653	32.537254	1830.3104	-325.16812	562.80206	1447.1031	-197.4534	553.39124	1436.9149	-329.66083	516.62634	1470.9453	-244.25072	377.84415	1528.0044	-289.27292	242.01683	1697.2563	-208.51936	235.77423	1652.1609	-219.67442	262.28809	1764.6798	-257.40286	84.022415	1580.8607	-266.02979	116.59741	1606.1005	-327.71967	101.15136	1644.2992
314	3.13	-179.36519	1319.1617	1465.6375	-351.52982	1427.3081	1556.1449	17.578913	1371.4288	1511.077	-291.77798	963.1051	1588.7832	-34.260483	972.30487	1582.6884	-109.011	1019.0661	1752.1473	-239.27534	1008.6621	1757.2733	-9.4706326	516.95905	1740.8213	-142.65198	492.68015	1719.6539	-8.6567106	441.95557	1773.7333	-103.91566	292.32187	1830.6969	-61.582172	139.9796	1976.6893	-138.61171	149.08357	1922.774	-125.26733	148.00119	2048.0906	-24.712503	17.547323	1881.5612	-90.378464	45.002167	1865.7892	-92.305969	32.737343	1830.0577	-326.43195	570.3277	1416.1493	-199.15759	563.18958	1406.7809	-331.13712	520.45129	1437.0931	-244.88527	378.24765	1484.7544	-290.44635	228.11082	1641.3107	-209.24979	225.83775	1596.9088	-221.44464	241.98831	1711.1987	-258.06561	81.094566	1511.851	-266.80429	111.25246	1539.868	-328.91318	92.930359	1575.8123
315	3.14	-182.41081	1328.5729	1437.5292	-353.49091	1434.8003	1530.1166	14.430371	1381.1714	1480.8328	-291.99338	971.15729	1558.9115	-36.35947	979.52094	1550.549	-108.81326	1026.3615	1720.8014	-238.74554	1016.4197	1726.6992	-9.0254459	527.12732	1722.2964	-142.76286	502.42532	1699.9177	-7.8115005	453.52182	1758.1963	-100.60558	301.48593	1813.6417	-58.460388	149.58951	1962.163	-133.54178	155.48518	1906.1461	-122.98669	165.00873	2030.2139	-25.353485	17.468098	1879.9573	-89.983185	46.070004	1859.2046	-91.700249	32.979721	1827.9569	-327.95123	576.37994	1387.1659	-200.80592	572.58325	1374.5446	-332.71979	523.52356	1404.8815	-245.73041	378.16531	1442.8242	-291.6123	213.67732	1584.7277	-210.56143	216.21425	1541.6332	-223.8055	221.66505	1656.6722	-257.58679	79.557526	1442.9076	-266.90872	106.96335	1473.6781	-329.87027	85.518776	1507.2249
316	3.15	-185.27608	1337.9354	1409.34	-355.4433	1441.7712	1503.4844	11.193463	1390.988	1451.015	-292.58368	978.44171	1528.6466	-36.252735	986.35107	1521.5443	-108.93221	1033.7126	1689.3905	-238.38174	1024.4377	1695.8646	-8.8413973	537.33008	1702.8446	-141.97894	510.22083	1677.0098	-7.4113212	465.11008	1741.1125	-96.902847	309.76727	1794.1572	-54.83519	158.52464	1944.7035	-127.56193	160.92989	1886.223	-120.54078	182.14705	2006.7451	-25.642504	19.059011	1878.5819	-89.772423	45.331638	1856.1523	-91.298584	32.579647	1825.4835	-329.50491	580.91461	1359.8644	-202.82585	578.07764	1346.4231	-334.47885	525.66675	1374.4329	-247.23491	377.22714	1401.5651	-293.56439	199.46623	1528.2363	-212.28276	207.80911	1484.2024	-226.85924	201.68936	1601.7423	-256.55331	79.677055	1374.6823	-266.70001	103.9436	1408.0923	-328.8519	77.772659	1438.337
317	3.16	-188.02484	1347.3062	1381.1195	-357.32568	1448.1569	1476.4484	8.0109749	1400.455	1421.6576	-292.30347	985.58356	1499.0428	-37.277401	993.04419	1490.8855	-109.20823	1041.028	1657.6754	-238.14297	1032.3191	1664.724	-8.7597265	547.01691	1681.9088	-140.22157	516.36548	1651.5082	-7.1439238	475.9762	1722.0239	-92.852425	317.35129	1772.7231	-50.768494	167.89781	1925.2231	-121.85812	166.58286	1864.8612	-116.99802	201.30727	1981.6899	-26.385067	21.45558	1875.8773	-88.779976	46.578808	1848.8589	-90.257751	31.258747	1822.9436	-330.97903	583.97083	1333.8641	-205.06485	581.38214	1319.4563	-336.01251	526.54889	1345.9454	-249.14081	375.34738	1361.6384	-295.05405	185.02164	1471.2026	-215.01744	199.84621	1429.8986	-230.6062	182.11365	1546.4719	-254.56429	81.903618	1308.332	-266.28198	102.25266	1343.9354	-327.65634	71.196045	1370.7406
318	3.17	-190.18523	1356.7153	1353.3314	-359.33762	1453.6208	1448.7069	4.8953462	1409.2465	1392.7681	-292.50635	991.84637	1468.6339	-36.846317	998.70239	1460.83	-109.43855	1048.1528	1625.75	-237.95082	1039.7352	1633.4497	-8.8105917	556.05829	1659.3666	-137.68272	521.09137	1625.1346	-6.7419157	485.43597	1700.6831	-89.88269	324.59772	1750.5144	-46.499329	179.03636	1905.1438	-117.47282	173.30807	1844.082	-112.78763	220.33682	1955.9496	-26.685339	24.869543	1871.6781	-87.599312	49.450764	1840.1594	-88.711243	29.758095	1817.8921	-332.4368	585.59546	1308.9526	-207.32315	581.85602	1294.3712	-337.64969	525.8429	1319.0187	-251.49634	372.54218	1322.8969	-297.71463	172.20946	1415.6522	-217.97884	192.14302	1377.1758	-234.72136	164.07445	1491.4893	-252.10481	85.160484	1244.7466	-265.6026	101.48193	1282.1522	-326.01089	66.00721	1304.8547
